<?xml version="1.0" encoding="UTF-8"?>
<svg id="livetype" xmlns="http://www.w3.org/2000/svg" viewBox="0 0 119.66 40">
  <defs>
    <style>
      .cls-1 {
        fill: #b7b7b7;
      }

      .cls-2 {
        fill: #fff;
      }
    </style>
  </defs>
  <g>
    <g>
      <path class="cls-1" d="M110.13,0H9.53c-.37,0-.73,0-1.09,0-.31,0-.61,0-.92,.01-.67,.02-1.34,.06-2,.18-.67,.12-1.29,.32-1.9,.63-.6,.31-1.15,.71-1.62,1.18-.48,.47-.88,1.02-1.18,1.62-.31,.61-.51,1.23-.63,1.9C.07,6.18,.03,6.85,.02,7.52c0,.31-.01,.61-.02,.92V31.56c0,.31,0,.61,.02,.92,.02,.67,.06,1.34,.18,2,.12,.67,.31,1.3,.63,1.9,.3,.6,.7,1.14,1.18,1.61,.47,.48,1.02,.88,1.62,1.18,.61,.31,1.23,.51,1.9,.63,.66,.12,1.34,.16,2,.18,.31,0,.61,.01,.92,.01,.37,0,.73,0,1.09,0H110.13c.36,0,.72,0,1.08,0,.3,0,.62,0,.92-.01,.67-.02,1.34-.06,2-.18,.67-.12,1.29-.32,1.91-.63,.6-.3,1.14-.7,1.62-1.18,.48-.47,.87-1.02,1.18-1.61,.31-.61,.51-1.23,.62-1.9,.12-.66,.16-1.33,.19-2,0-.31,0-.61,0-.92,0-.36,0-.72,0-1.09V9.54c0-.37,0-.73,0-1.09,0-.31,0-.61,0-.92-.02-.67-.06-1.34-.19-2-.11-.67-.31-1.29-.62-1.9-.31-.6-.71-1.15-1.18-1.62-.47-.47-1.02-.87-1.62-1.18-.62-.31-1.24-.51-1.91-.63-.66-.12-1.33-.16-2-.18-.3,0-.62-.01-.92-.01-.36,0-.72,0-1.08,0h0Z"/>
      <path d="M8.44,39.12c-.3,0-.6,0-.9-.01-.56-.02-1.22-.05-1.87-.16-.61-.11-1.15-.29-1.66-.55-.52-.26-.99-.61-1.4-1.02-.41-.41-.75-.87-1.02-1.4-.26-.5-.44-1.05-.54-1.66-.12-.67-.15-1.36-.17-1.88,0-.21-.01-.91-.01-.91V8.44s0-.69,.01-.89c.01-.52,.04-1.21,.17-1.87,.11-.61,.28-1.16,.54-1.66,.27-.52,.61-.99,1.02-1.4,.41-.41,.88-.76,1.4-1.02,.51-.26,1.06-.44,1.65-.54,.67-.12,1.36-.15,1.88-.16h.9s102.77-.01,102.77-.01h.91c.51,.03,1.2,.06,1.86,.18,.6,.11,1.15,.28,1.67,.55,.51,.26,.98,.61,1.39,1.02,.41,.41,.75,.88,1.02,1.4,.26,.51,.43,1.05,.54,1.65,.12,.63,.15,1.28,.17,1.89,0,.28,0,.59,0,.89,0,.38,0,.73,0,1.09V30.46c0,.36,0,.72,0,1.08,0,.33,0,.62,0,.93-.02,.59-.06,1.24-.17,1.85-.1,.61-.28,1.16-.54,1.67-.27,.52-.61,.99-1.02,1.39-.41,.42-.88,.76-1.4,1.02-.52,.26-1.05,.44-1.67,.55-.64,.12-1.3,.15-1.87,.16-.29,0-.6,.01-.9,.01h-1.08s-101.69,0-101.69,0Z"/>
    </g>
    <g>
      <g>
        <path class="cls-2" d="M24.77,20.3c-.03-2.75,2.25-4.09,2.36-4.15-1.29-1.88-3.29-2.14-3.99-2.16-1.68-.18-3.31,1-4.16,1s-2.19-.99-3.61-.96c-1.83,.03-3.54,1.09-4.47,2.73-1.93,3.35-.49,8.27,1.36,10.98,.93,1.33,2.01,2.81,3.43,2.75,1.39-.06,1.91-.88,3.58-.88s2.14,.88,3.59,.85c1.49-.02,2.43-1.33,3.32-2.67,1.07-1.52,1.5-3.02,1.52-3.09-.03-.01-2.89-1.1-2.92-4.4Z"/>
        <path class="cls-2" d="M22.04,12.21c.75-.93,1.26-2.2,1.11-3.49-1.08,.05-2.43,.75-3.21,1.66-.69,.8-1.3,2.12-1.14,3.36,1.21,.09,2.46-.61,3.24-1.53Z"/>
      </g>
      <g>
        <path class="cls-2" d="M42.3,27.14h-4.73l-1.14,3.36h-2l4.48-12.42h2.08l4.48,12.42h-2.04l-1.14-3.36Zm-4.24-1.55h3.75l-1.85-5.45h-.05l-1.85,5.45Z"/>
        <path class="cls-2" d="M55.16,25.97c0,2.81-1.51,4.62-3.78,4.62-1.29,0-2.31-.58-2.85-1.58h-.04v4.48h-1.86v-12.05h1.8v1.51h.03c.52-.97,1.62-1.6,2.88-1.6,2.3,0,3.81,1.82,3.81,4.62Zm-1.91,0c0-1.83-.95-3.04-2.39-3.04s-2.38,1.23-2.38,3.04,.96,3.05,2.38,3.05,2.39-1.2,2.39-3.05Z"/>
        <path class="cls-2" d="M65.12,25.97c0,2.81-1.51,4.62-3.78,4.62-1.29,0-2.31-.58-2.85-1.58h-.04v4.48h-1.86v-12.05h1.8v1.51h.03c.52-.97,1.62-1.6,2.88-1.6,2.3,0,3.81,1.82,3.81,4.62Zm-1.91,0c0-1.83-.95-3.04-2.39-3.04s-2.38,1.23-2.38,3.04,.96,3.05,2.38,3.05,2.39-1.2,2.39-3.05Z"/>
        <path class="cls-2" d="M71.71,27.04c.14,1.23,1.33,2.04,2.97,2.04s2.69-.81,2.69-1.92c0-.96-.68-1.54-2.29-1.94l-1.61-.39c-2.28-.55-3.34-1.62-3.34-3.35,0-2.14,1.87-3.61,4.52-3.61s4.42,1.47,4.48,3.61h-1.88c-.11-1.24-1.14-1.99-2.63-1.99s-2.52,.76-2.52,1.86c0,.88,.65,1.39,2.25,1.79l1.37,.34c2.55,.6,3.61,1.63,3.61,3.44,0,2.32-1.85,3.78-4.79,3.78-2.75,0-4.61-1.42-4.73-3.67h1.9Z"/>
        <path class="cls-2" d="M83.35,19.3v2.14h1.72v1.47h-1.72v4.99c0,.78,.34,1.14,1.1,1.14,.19,0,.49-.03,.61-.04v1.46c-.21,.05-.62,.09-1.03,.09-1.83,0-2.55-.69-2.55-2.44v-5.19h-1.32v-1.47h1.32v-2.14h1.87Z"/>
        <path class="cls-2" d="M86.06,25.97c0-2.85,1.68-4.64,4.29-4.64s4.29,1.79,4.29,4.64-1.66,4.64-4.29,4.64-4.29-1.78-4.29-4.64Zm6.7,0c0-1.95-.9-3.11-2.4-3.11s-2.4,1.16-2.4,3.11,.89,3.11,2.4,3.11,2.4-1.14,2.4-3.11Z"/>
        <path class="cls-2" d="M96.19,21.44h1.77v1.54h.04c.28-1.02,1.11-1.64,2.18-1.64,.27,0,.49,.04,.64,.07v1.74c-.15-.06-.47-.11-.83-.11-1.2,0-1.94,.81-1.94,2.08v5.37h-1.86v-9.05Z"/>
        <path class="cls-2" d="M109.38,27.84c-.25,1.64-1.85,2.77-3.9,2.77-2.63,0-4.27-1.76-4.27-4.6s1.64-4.68,4.19-4.68,4.08,1.72,4.08,4.47v.64h-6.39v.11c0,1.55,.97,2.56,2.44,2.56,1.03,0,1.84-.49,2.09-1.27h1.76Zm-6.28-2.7h4.53c-.04-1.39-.93-2.3-2.22-2.3s-2.21,.93-2.31,2.3Z"/>
      </g>
    </g>
  </g>
  <g>
    <path class="cls-2" d="M37.83,8.73c1.77,0,2.81,1.09,2.81,2.96s-1.03,3-2.81,3h-2.16v-5.97h2.16Zm-1.23,5.12h1.12c1.25,0,1.97-.78,1.97-2.15s-.73-2.13-1.97-2.13h-1.12v4.28Z"/>
    <path class="cls-2" d="M41.68,12.44c0-1.45,.81-2.34,2.12-2.34s2.12,.88,2.12,2.34-.81,2.34-2.12,2.34-2.12-.88-2.12-2.34Zm3.33,0c0-.98-.44-1.55-1.21-1.55s-1.21,.57-1.21,1.55,.43,1.55,1.21,1.55,1.21-.57,1.21-1.55Z"/>
    <path class="cls-2" d="M51.57,14.7h-.92l-.93-3.32h-.07l-.93,3.32h-.91l-1.24-4.5h.9l.81,3.44h.07l.93-3.44h.85l.93,3.44h.07l.8-3.44h.89l-1.24,4.5Z"/>
    <path class="cls-2" d="M53.85,10.19h.86v.72h.07c.22-.5,.67-.8,1.34-.8,1,0,1.56,.6,1.56,1.67v2.92h-.89v-2.69c0-.72-.31-1.08-.97-1.08s-1.08,.44-1.08,1.14v2.63h-.89v-4.5Z"/>
    <path class="cls-2" d="M59.09,8.44h.89v6.26h-.89v-6.26Z"/>
    <path class="cls-2" d="M61.22,12.44c0-1.45,.81-2.34,2.12-2.34s2.12,.88,2.12,2.34-.81,2.34-2.12,2.34-2.12-.88-2.12-2.34Zm3.33,0c0-.98-.44-1.55-1.21-1.55s-1.21,.57-1.21,1.55,.43,1.55,1.21,1.55,1.21-.57,1.21-1.55Z"/>
    <path class="cls-2" d="M66.4,13.42c0-.81,.6-1.28,1.67-1.34l1.22-.07v-.39c0-.48-.31-.74-.92-.74-.5,0-.84,.18-.94,.5h-.86c.09-.77,.82-1.27,1.84-1.27,1.13,0,1.77,.56,1.77,1.51v3.08h-.86v-.63h-.07c-.27,.45-.76,.71-1.35,.71-.87,0-1.5-.52-1.5-1.35Zm2.89-.38v-.38l-1.1,.07c-.62,.04-.9,.25-.9,.65s.35,.64,.83,.64c.67,0,1.17-.43,1.17-.98Z"/>
    <path class="cls-2" d="M71.35,12.44c0-1.42,.73-2.32,1.87-2.32,.62,0,1.14,.29,1.38,.79h.07v-2.47h.89v6.26h-.85v-.71h-.07c-.27,.49-.79,.79-1.41,.79-1.15,0-1.87-.9-1.87-2.33Zm.92,0c0,.96,.45,1.53,1.2,1.53s1.21-.58,1.21-1.53-.47-1.53-1.21-1.53-1.2,.58-1.2,1.53Z"/>
    <path class="cls-2" d="M79.23,12.44c0-1.45,.81-2.34,2.12-2.34s2.12,.88,2.12,2.34-.81,2.34-2.12,2.34-2.12-.88-2.12-2.34Zm3.33,0c0-.98-.44-1.55-1.21-1.55s-1.21,.57-1.21,1.55,.43,1.55,1.21,1.55,1.21-.57,1.21-1.55Z"/>
    <path class="cls-2" d="M84.67,10.19h.86v.72h.07c.22-.5,.67-.8,1.34-.8,1,0,1.56,.6,1.56,1.67v2.92h-.89v-2.69c0-.72-.31-1.08-.97-1.08s-1.08,.44-1.08,1.14v2.63h-.89v-4.5Z"/>
    <path class="cls-2" d="M93.52,9.07v1.14h.98v.75h-.98v2.32c0,.47,.19,.68,.64,.68,.14,0,.21,0,.34-.02v.74c-.14,.02-.31,.05-.48,.05-.99,0-1.38-.35-1.38-1.22v-2.54h-.71v-.75h.71v-1.14h.89Z"/>
    <path class="cls-2" d="M95.7,8.44h.88v2.48h.07c.22-.5,.69-.81,1.37-.81,.96,0,1.55,.61,1.55,1.68v2.91h-.89v-2.69c0-.72-.33-1.08-.96-1.08-.73,0-1.13,.46-1.13,1.14v2.63h-.89v-6.26Z"/>
    <path class="cls-2" d="M104.76,13.48c-.2,.81-.92,1.3-1.95,1.3-1.29,0-2.08-.88-2.08-2.32s.81-2.35,2.08-2.35,2.01,.86,2.01,2.27v.31h-3.18v.05c.03,.79,.49,1.29,1.2,1.29,.54,0,.91-.19,1.07-.55h.86Zm-3.13-1.45h2.27c-.02-.71-.45-1.17-1.11-1.17s-1.12,.46-1.17,1.17Z"/>
  </g>
</svg>